<svg width="92" height="92" viewBox="0 0 92 92" fill="none" xmlns="http://www.w3.org/2000/svg">
<g filter="url(#filter0_d_1_297)">
<g clip-path="url(#clip0_1_297)">
<path d="M46 77.5C65.6061 77.5 81.5 61.6061 81.5 42C81.5 22.3939 65.6061 6.5 46 6.5C26.3939 6.5 10.5 22.3939 10.5 42C10.5 61.6061 26.3939 77.5 46 77.5Z" fill="white" stroke="#DCDDEB"/>
<path d="M45.3184 50.014C43.0479 47.7435 43.0479 44.0638 45.3184 41.7933C46.4528 40.6607 47.9412 40.0917 49.4279 40.0917C50.9146 40.0917 52.403 40.6589 53.5374 41.7933C53.784 42.0399 53.9901 42.3076 54.1839 42.5842C54.3776 42.3094 54.5837 42.0399 54.8303 41.7933C55.9647 40.6607 57.4531 40.0917 58.9398 40.0917C60.4265 40.0917 61.9149 40.6589 63.0493 41.7933C63.1251 41.869 63.1779 41.9589 63.2501 42.0381C65.6528 37.9533 65.1384 32.6266 61.6313 29.1196C59.551 27.041 56.8225 26 54.0958 26C51.369 26 48.6405 27.041 46.5602 29.1213C46.1093 29.5722 45.7306 30.0655 45.3765 30.571C45.0225 30.0655 44.6438 29.5722 44.1928 29.1213C42.1126 27.041 39.384 26 36.6573 26C33.9306 26 31.202 27.041 29.1218 29.1213C24.9594 33.2837 24.9594 40.0301 29.1218 44.1924C30.9308 46.0014 41.8765 55.1064 42.6357 55.8656C43.3931 56.623 44.3848 57 45.3765 57C46.3682 57 47.36 56.6213 48.1174 55.8656C48.2953 55.6877 49.0439 55.043 50.0902 54.1517C48.2055 52.5523 45.8997 50.5953 45.3184 50.014Z" fill="#0075FF"/>
<path d="M63.0495 41.7946C61.9151 40.6603 60.4267 40.0913 58.94 40.0913C57.4533 40.0913 55.9649 40.6585 54.8305 41.7929C54.5839 42.0395 54.3778 42.3072 54.1841 42.5838C53.9903 42.3072 53.7842 42.0395 53.5376 41.7929C52.4032 40.6603 50.9148 40.0913 49.4281 40.0913C47.9414 40.0913 46.453 40.6585 45.3186 41.7929C43.0481 44.0634 43.0481 47.7431 45.3186 50.0136C46.305 51.0001 52.2746 55.9656 52.6886 56.3796C53.1025 56.7935 53.6433 56.9978 54.1841 56.9978C54.7248 56.9978 55.2656 56.7917 55.6796 56.3796C56.0953 55.9656 62.0649 50.9983 63.0495 50.0136C65.32 47.7431 65.32 44.0652 63.0495 41.7946Z" fill="#123578"/>
</g>
</g>
<defs>
<filter id="filter0_d_1_297" x="0" y="0" width="92" height="92" filterUnits="userSpaceOnUse" color-interpolation-filters="sRGB">
<feFlood flood-opacity="0" result="BackgroundImageFix"/>
<feColorMatrix in="SourceAlpha" type="matrix" values="0 0 0 0 0 0 0 0 0 0 0 0 0 0 0 0 0 0 127 0" result="hardAlpha"/>
<feOffset dy="4"/>
<feGaussianBlur stdDeviation="5"/>
<feColorMatrix type="matrix" values="0 0 0 0 0.0784314 0 0 0 0 0.0784314 0 0 0 0 0.168627 0 0 0 0.04 0"/>
<feBlend mode="normal" in2="BackgroundImageFix" result="effect1_dropShadow_1_297"/>
<feBlend mode="normal" in="SourceGraphic" in2="effect1_dropShadow_1_297" result="shape"/>
</filter>
<clipPath id="clip0_1_297">
<path d="M10 13C10 9.13401 13.134 6 17 6H75C78.866 6 82 9.13401 82 13V71C82 74.866 78.866 78 75 78H17C13.134 78 10 74.866 10 71V13Z" fill="white"/>
</clipPath>
</defs>
</svg>
