<svg width="92" height="92" viewBox="0 0 92 92" fill="none" xmlns="http://www.w3.org/2000/svg">
<g filter="url(#filter0_d_1_313)">
<g clip-path="url(#clip0_1_313)">
<path d="M46 77.5C65.6061 77.5 81.5 61.6061 81.5 42C81.5 22.3939 65.6061 6.5 46 6.5C26.3939 6.5 10.5 22.3939 10.5 42C10.5 61.6061 26.3939 77.5 46 77.5Z" fill="white" stroke="#DCDDEB"/>
<path d="M53.206 44.5879H38.7943C34.8146 44.5879 31.5884 47.8141 31.5884 51.7938C31.5884 55.7735 34.8146 58.9997 38.7943 58.9997H53.206C57.1857 58.9997 60.4119 55.7735 60.4119 51.7938C60.4119 47.8141 57.1857 44.5879 53.206 44.5879Z" fill="#123578"/>
<path d="M45.9999 40.4706C50.5482 40.4706 54.2352 36.7835 54.2352 32.2353C54.2352 27.6871 50.5482 24 45.9999 24C41.4517 24 37.7646 27.6871 37.7646 32.2353C37.7646 36.7835 41.4517 40.4706 45.9999 40.4706Z" fill="#0075FF"/>
</g>
</g>
<defs>
<filter id="filter0_d_1_313" x="0" y="0" width="92" height="92" filterUnits="userSpaceOnUse" color-interpolation-filters="sRGB">
<feFlood flood-opacity="0" result="BackgroundImageFix"/>
<feColorMatrix in="SourceAlpha" type="matrix" values="0 0 0 0 0 0 0 0 0 0 0 0 0 0 0 0 0 0 127 0" result="hardAlpha"/>
<feOffset dy="4"/>
<feGaussianBlur stdDeviation="5"/>
<feColorMatrix type="matrix" values="0 0 0 0 0.0784314 0 0 0 0 0.0784314 0 0 0 0 0.168627 0 0 0 0.04 0"/>
<feBlend mode="normal" in2="BackgroundImageFix" result="effect1_dropShadow_1_313"/>
<feBlend mode="normal" in="SourceGraphic" in2="effect1_dropShadow_1_313" result="shape"/>
</filter>
<clipPath id="clip0_1_313">
<path d="M10 13C10 9.13401 13.134 6 17 6H75C78.866 6 82 9.13401 82 13V71C82 74.866 78.866 78 75 78H17C13.134 78 10 74.866 10 71V13Z" fill="white"/>
</clipPath>
</defs>
</svg>
