<svg width="92" height="92" viewBox="0 0 92 92" fill="none" xmlns="http://www.w3.org/2000/svg">
<g filter="url(#filter0_d_1_305)">
<g clip-path="url(#clip0_1_305)">
<path d="M46 77.5C65.6061 77.5 81.5 61.6061 81.5 42C81.5 22.3939 65.6061 6.5 46 6.5C26.3939 6.5 10.5 22.3939 10.5 42C10.5 61.6061 26.3939 77.5 46 77.5Z" fill="white" stroke="#DCDDEB"/>
<path d="M45.6016 61.2031C56.4272 61.2031 65.2031 52.4272 65.2031 41.6016C65.2031 30.7759 56.4272 22 45.6016 22C34.7759 22 26 30.7759 26 41.6016C26 52.4272 34.7759 61.2031 45.6016 61.2031Z" fill="#0075FF"/>
<path d="M43.6414 49.4423C43.1396 49.4423 42.6378 49.2502 42.2556 48.868L36.3751 42.9875C35.6087 42.2211 35.6087 40.9823 36.3751 40.2158C37.1415 39.4494 38.3803 39.4494 39.1468 40.2158L43.6414 44.7105L52.0564 36.2955C52.8228 35.5291 54.0616 35.5291 54.828 36.2955C55.5944 37.0619 55.5944 38.3008 54.828 39.0672L45.0272 48.868C44.645 49.2502 44.1432 49.4423 43.6414 49.4423Z" fill="#EDF5FF"/>
</g>
</g>
<defs>
<filter id="filter0_d_1_305" x="0" y="0" width="92" height="92" filterUnits="userSpaceOnUse" color-interpolation-filters="sRGB">
<feFlood flood-opacity="0" result="BackgroundImageFix"/>
<feColorMatrix in="SourceAlpha" type="matrix" values="0 0 0 0 0 0 0 0 0 0 0 0 0 0 0 0 0 0 127 0" result="hardAlpha"/>
<feOffset dy="4"/>
<feGaussianBlur stdDeviation="5"/>
<feColorMatrix type="matrix" values="0 0 0 0 0.0784314 0 0 0 0 0.0784314 0 0 0 0 0.168627 0 0 0 0.04 0"/>
<feBlend mode="normal" in2="BackgroundImageFix" result="effect1_dropShadow_1_305"/>
<feBlend mode="normal" in="SourceGraphic" in2="effect1_dropShadow_1_305" result="shape"/>
</filter>
<clipPath id="clip0_1_305">
<path d="M10 13C10 9.13401 13.134 6 17 6H75C78.866 6 82 9.13401 82 13V71C82 74.866 78.866 78 75 78H17C13.134 78 10 74.866 10 71V13Z" fill="white"/>
</clipPath>
</defs>
</svg>
