<svg width="94" height="93" viewBox="0 0 94 93" fill="none" xmlns="http://www.w3.org/2000/svg">
<path d="M9.78223 32.5186L3.71777 31.0684L5.90625 11.6094H27.4746V17.7529H12.1553L11.2061 26.2695C11.7158 25.9707 12.4893 25.6543 13.5264 25.3203C14.5635 24.9688 15.7236 24.793 17.0068 24.793C18.8701 24.793 20.5225 25.083 21.9639 25.6631C23.4053 26.2432 24.627 27.0869 25.6289 28.1943C26.6484 29.3018 27.4219 30.6553 27.9492 32.2549C28.4766 33.8545 28.7402 35.665 28.7402 37.6865C28.7402 39.3916 28.4766 41.0176 27.9492 42.5645C27.4219 44.0938 26.6221 45.4648 25.5498 46.6777C24.4775 47.873 23.1328 48.8135 21.5156 49.499C19.8984 50.1846 17.9824 50.5273 15.7676 50.5273C14.1152 50.5273 12.5156 50.2812 10.9688 49.7891C9.43945 49.2969 8.05957 48.5674 6.8291 47.6006C5.61621 46.6338 4.64062 45.4648 3.90234 44.0938C3.18164 42.7051 2.80371 41.123 2.76855 39.3477H10.3096C10.415 40.4375 10.6963 41.3779 11.1533 42.1689C11.6279 42.9424 12.252 43.54 13.0254 43.9619C13.7988 44.3838 14.7041 44.5947 15.7412 44.5947C16.708 44.5947 17.5342 44.4102 18.2197 44.041C18.9053 43.6719 19.459 43.1621 19.8809 42.5117C20.3027 41.8438 20.6104 41.0703 20.8037 40.1914C21.0146 39.2949 21.1201 38.3281 21.1201 37.291C21.1201 36.2539 20.9971 35.3135 20.751 34.4697C20.5049 33.626 20.127 32.8965 19.6172 32.2812C19.1074 31.666 18.457 31.1914 17.666 30.8574C16.8926 30.5234 15.9873 30.3564 14.9502 30.3564C13.5439 30.3564 12.4541 30.5762 11.6807 31.0156C10.9248 31.4551 10.292 31.9561 9.78223 32.5186ZM41.5547 9.47363V50H33.9609V9.47363H41.5547ZM59.5371 21.4707L47.1445 35.6035L40.5 42.3271L37.7314 36.8428L43.0049 30.1455L50.4141 21.4707H59.5371ZM51.6533 50L43.2158 36.8164L48.4629 32.2285L60.4072 50H51.6533Z" fill="#211F54"/>
<path d="M93.3711 29.4072V33.9951H67.0566V29.4072H93.3711ZM82.666 18.2012V46.1504H77.7881V18.2012H82.666Z" fill="#0075FF"/>
<path d="M8.56055 81.7549H11.1885C11.1357 82.6162 10.8984 83.3809 10.4766 84.0488C10.0605 84.7168 9.47754 85.2383 8.72754 85.6133C7.9834 85.9883 7.08691 86.1758 6.03809 86.1758C5.21777 86.1758 4.48242 86.0352 3.83203 85.7539C3.18164 85.4668 2.625 85.0566 2.16211 84.5234C1.70508 83.9902 1.35645 83.3457 1.11621 82.5898C0.875977 81.834 0.755859 80.9873 0.755859 80.0498V79.1621C0.755859 78.2246 0.878906 77.3779 1.125 76.6221C1.37695 75.8604 1.73438 75.2129 2.19727 74.6797C2.66602 74.1465 3.22559 73.7363 3.87598 73.4492C4.52637 73.1621 5.25293 73.0186 6.05566 73.0186C7.12207 73.0186 8.02148 73.2119 8.75391 73.5986C9.49219 73.9854 10.0635 74.5186 10.4678 75.1982C10.8779 75.8779 11.124 76.6514 11.2061 77.5186H8.56934C8.54004 77.0029 8.4375 76.5664 8.26172 76.209C8.08594 75.8457 7.81934 75.5732 7.46191 75.3916C7.11035 75.2041 6.6416 75.1104 6.05566 75.1104C5.61621 75.1104 5.23242 75.1924 4.9043 75.3564C4.57617 75.5205 4.30078 75.7695 4.07812 76.1035C3.85547 76.4375 3.68848 76.8594 3.57715 77.3691C3.47168 77.873 3.41895 78.4648 3.41895 79.1445V80.0498C3.41895 80.7119 3.46875 81.2949 3.56836 81.7988C3.66797 82.2969 3.82031 82.7188 4.02539 83.0645C4.23633 83.4043 4.50586 83.6621 4.83398 83.8379C5.16797 84.0078 5.56934 84.0928 6.03809 84.0928C6.58887 84.0928 7.04297 84.0049 7.40039 83.8291C7.75781 83.6533 8.03027 83.3926 8.21777 83.0469C8.41113 82.7012 8.52539 82.2705 8.56055 81.7549ZM15.4336 72.5V86H12.8936V72.5H15.4336ZM20.1973 76.4902V86H17.6572V76.4902H20.1973ZM17.499 74.0117C17.499 73.6426 17.6279 73.3379 17.8857 73.0977C18.1436 72.8574 18.4893 72.7373 18.9229 72.7373C19.3506 72.7373 19.6934 72.8574 19.9512 73.0977C20.2148 73.3379 20.3467 73.6426 20.3467 74.0117C20.3467 74.3809 20.2148 74.6855 19.9512 74.9258C19.6934 75.166 19.3506 75.2861 18.9229 75.2861C18.4893 75.2861 18.1436 75.166 17.8857 74.9258C17.6279 74.6855 17.499 74.3809 17.499 74.0117ZM26.666 86.1758C25.9277 86.1758 25.2656 86.0586 24.6797 85.8242C24.0938 85.584 23.5957 85.2529 23.1855 84.8311C22.7812 84.4092 22.4707 83.9199 22.2539 83.3633C22.0371 82.8008 21.9287 82.2031 21.9287 81.5703V81.2188C21.9287 80.498 22.0312 79.8389 22.2363 79.2412C22.4414 78.6436 22.7344 78.125 23.1152 77.6855C23.502 77.2461 23.9707 76.9092 24.5215 76.6748C25.0723 76.4346 25.6934 76.3145 26.3848 76.3145C27.0586 76.3145 27.6562 76.4258 28.1777 76.6484C28.6992 76.8711 29.1357 77.1875 29.4873 77.5977C29.8447 78.0078 30.1143 78.5 30.2959 79.0742C30.4775 79.6426 30.5684 80.2754 30.5684 80.9727V82.0273H23.0098V80.3398H28.0811V80.1465C28.0811 79.7949 28.0166 79.4814 27.8877 79.2061C27.7646 78.9248 27.5771 78.7021 27.3252 78.5381C27.0732 78.374 26.751 78.292 26.3584 78.292C26.0244 78.292 25.7373 78.3652 25.4971 78.5117C25.2568 78.6582 25.0605 78.8633 24.9082 79.127C24.7617 79.3906 24.6504 79.7012 24.5742 80.0586C24.5039 80.4102 24.4688 80.7969 24.4688 81.2188V81.5703C24.4688 81.9512 24.5215 82.3027 24.627 82.625C24.7383 82.9473 24.8936 83.2256 25.0928 83.46C25.2979 83.6943 25.5439 83.876 25.8311 84.0049C26.124 84.1338 26.4551 84.1982 26.8242 84.1982C27.2812 84.1982 27.7061 84.1104 28.0986 83.9346C28.4971 83.7529 28.8398 83.4805 29.127 83.1172L30.3574 84.4531C30.1582 84.7402 29.8857 85.0156 29.54 85.2793C29.2002 85.543 28.79 85.7598 28.3096 85.9297C27.8291 86.0938 27.2812 86.1758 26.666 86.1758ZM34.4883 78.5205V86H31.957V76.4902H34.3301L34.4883 78.5205ZM34.1191 80.9111H33.4336C33.4336 80.208 33.5244 79.5752 33.7061 79.0127C33.8877 78.4443 34.1426 77.9609 34.4707 77.5625C34.7988 77.1582 35.1885 76.8506 35.6396 76.6396C36.0967 76.4229 36.6064 76.3145 37.1689 76.3145C37.6143 76.3145 38.0215 76.3789 38.3906 76.5078C38.7598 76.6367 39.0762 76.8418 39.3398 77.123C39.6094 77.4043 39.8145 77.7764 39.9551 78.2393C40.1016 78.7021 40.1748 79.2676 40.1748 79.9355V86H37.626V79.9268C37.626 79.5049 37.5674 79.1768 37.4502 78.9424C37.333 78.708 37.1602 78.5439 36.9316 78.4502C36.709 78.3506 36.4336 78.3008 36.1055 78.3008C35.7656 78.3008 35.4697 78.3682 35.2178 78.5029C34.9717 78.6377 34.7666 78.8252 34.6025 79.0654C34.4443 79.2998 34.3242 79.5752 34.2422 79.8916C34.1602 80.208 34.1191 80.5479 34.1191 80.9111ZM46.7578 76.4902V78.2832H41.2207V76.4902H46.7578ZM42.5918 74.1436H45.123V83.1348C45.123 83.4102 45.1582 83.6211 45.2285 83.7676C45.3047 83.9141 45.416 84.0166 45.5625 84.0752C45.709 84.1279 45.8936 84.1543 46.1162 84.1543C46.2744 84.1543 46.415 84.1484 46.5381 84.1367C46.667 84.1191 46.7754 84.1016 46.8633 84.084L46.8721 85.9473C46.6553 86.0176 46.4209 86.0732 46.1689 86.1143C45.917 86.1553 45.6387 86.1758 45.334 86.1758C44.7773 86.1758 44.291 86.085 43.875 85.9033C43.4648 85.7158 43.1484 85.417 42.9258 85.0068C42.7031 84.5967 42.5918 84.0576 42.5918 83.3896V74.1436ZM53.3408 83.3721C53.3408 83.1904 53.2881 83.0264 53.1826 82.8799C53.0771 82.7334 52.8809 82.5986 52.5938 82.4756C52.3125 82.3467 51.9053 82.2295 51.3721 82.124C50.8916 82.0186 50.4434 81.8867 50.0273 81.7285C49.6172 81.5645 49.2598 81.3682 48.9551 81.1396C48.6562 80.9111 48.4219 80.6416 48.252 80.3311C48.082 80.0146 47.9971 79.6543 47.9971 79.25C47.9971 78.8516 48.082 78.4766 48.252 78.125C48.4277 77.7734 48.6768 77.4629 48.999 77.1934C49.3271 76.918 49.7256 76.7041 50.1943 76.5518C50.6689 76.3936 51.2021 76.3145 51.7939 76.3145C52.6201 76.3145 53.3291 76.4463 53.9209 76.71C54.5186 76.9736 54.9756 77.3369 55.292 77.7998C55.6143 78.2568 55.7754 78.7783 55.7754 79.3643H53.2441C53.2441 79.1182 53.1914 78.8984 53.0859 78.7051C52.9863 78.5059 52.8281 78.3506 52.6113 78.2393C52.4004 78.1221 52.125 78.0635 51.7852 78.0635C51.5039 78.0635 51.2607 78.1133 51.0557 78.2129C50.8506 78.3066 50.6924 78.4355 50.5811 78.5996C50.4756 78.7578 50.4229 78.9336 50.4229 79.127C50.4229 79.2734 50.4521 79.4053 50.5107 79.5225C50.5752 79.6338 50.6777 79.7363 50.8184 79.8301C50.959 79.9238 51.1406 80.0117 51.3633 80.0938C51.5918 80.1699 51.873 80.2402 52.207 80.3047C52.8926 80.4453 53.5049 80.6299 54.0439 80.8584C54.583 81.0811 55.0107 81.3857 55.3271 81.7725C55.6436 82.1533 55.8018 82.6543 55.8018 83.2754C55.8018 83.6973 55.708 84.084 55.5205 84.4355C55.333 84.7871 55.0635 85.0947 54.7119 85.3584C54.3604 85.6162 53.9385 85.8184 53.4463 85.9648C52.96 86.1055 52.4121 86.1758 51.8027 86.1758C50.918 86.1758 50.168 86.0176 49.5527 85.7012C48.9434 85.3848 48.4805 84.9834 48.1641 84.4971C47.8535 84.0049 47.6982 83.501 47.6982 82.9854H50.0977C50.1094 83.3311 50.1973 83.6094 50.3613 83.8203C50.5312 84.0312 50.7451 84.1836 51.0029 84.2773C51.2666 84.3711 51.5508 84.418 51.8555 84.418C52.1836 84.418 52.4561 84.374 52.6729 84.2861C52.8896 84.1924 53.0537 84.0693 53.165 83.917C53.2822 83.7588 53.3408 83.5771 53.3408 83.3721Z" fill="#6E7191"/>
</svg>
