<svg width="128" height="93" viewBox="0 0 128 93" fill="none" xmlns="http://www.w3.org/2000/svg">
<path d="M28.8984 44.0674V50H2.63672V44.9375L15.0557 31.6221C16.3037 30.2334 17.2881 29.0117 18.0088 27.957C18.7295 26.8848 19.248 25.9268 19.5645 25.083C19.8984 24.2217 20.0654 23.4043 20.0654 22.6309C20.0654 21.4707 19.8721 20.4775 19.4854 19.6514C19.0986 18.8076 18.5273 18.1572 17.7715 17.7002C17.0332 17.2432 16.1191 17.0146 15.0293 17.0146C13.8691 17.0146 12.8672 17.2959 12.0234 17.8584C11.1973 18.4209 10.5645 19.2031 10.125 20.2051C9.70312 21.207 9.49219 22.3408 9.49219 23.6064H1.87207C1.87207 21.3213 2.41699 19.2295 3.50684 17.3311C4.59668 15.415 6.13477 13.8945 8.12109 12.7695C10.1074 11.627 12.4629 11.0557 15.1875 11.0557C17.877 11.0557 20.1445 11.4951 21.9902 12.374C23.8535 13.2354 25.2598 14.4834 26.209 16.1182C27.1758 17.7354 27.6592 19.6689 27.6592 21.9189C27.6592 23.1846 27.457 24.4238 27.0527 25.6367C26.6484 26.832 26.0684 28.0273 25.3125 29.2227C24.5742 30.4004 23.6777 31.5957 22.623 32.8086C21.5684 34.0215 20.3994 35.2783 19.1162 36.5791L12.4453 44.0674H28.8984ZM59.4844 27.4297V34.0742C59.4844 36.957 59.1768 39.4443 58.5615 41.5361C57.9463 43.6104 57.0586 45.3154 55.8984 46.6514C54.7559 47.9697 53.3936 48.9453 51.8115 49.5781C50.2295 50.2109 48.4717 50.5273 46.5381 50.5273C44.9912 50.5273 43.5498 50.334 42.2139 49.9473C40.8779 49.543 39.6738 48.9189 38.6016 48.0752C37.5469 47.2314 36.6328 46.168 35.8594 44.8848C35.1035 43.584 34.5234 42.0371 34.1191 40.2441C33.7148 38.4512 33.5127 36.3945 33.5127 34.0742V27.4297C33.5127 24.5469 33.8203 22.0771 34.4355 20.0205C35.0684 17.9463 35.9561 16.25 37.0986 14.9316C38.2588 13.6133 39.6299 12.6465 41.2119 12.0312C42.7939 11.3984 44.5518 11.082 46.4854 11.082C48.0322 11.082 49.4648 11.2842 50.7832 11.6885C52.1191 12.0752 53.3232 12.6816 54.3955 13.5078C55.4678 14.334 56.3818 15.3975 57.1377 16.6982C57.8936 17.9814 58.4736 19.5195 58.8779 21.3125C59.2822 23.0879 59.4844 25.127 59.4844 27.4297ZM51.8643 35.0762V26.4014C51.8643 25.0127 51.7852 23.7998 51.627 22.7627C51.4863 21.7256 51.2666 20.8467 50.9678 20.126C50.6689 19.3877 50.2998 18.79 49.8604 18.333C49.4209 17.876 48.9199 17.542 48.3574 17.3311C47.7949 17.1201 47.1709 17.0146 46.4854 17.0146C45.624 17.0146 44.8594 17.1816 44.1914 17.5156C43.541 17.8496 42.9873 18.3857 42.5303 19.124C42.0732 19.8447 41.7217 20.8115 41.4756 22.0244C41.2471 23.2197 41.1328 24.6787 41.1328 26.4014V35.0762C41.1328 36.4648 41.2031 37.6865 41.3438 38.7412C41.502 39.7959 41.7305 40.7012 42.0293 41.457C42.3457 42.1953 42.7148 42.8018 43.1367 43.2764C43.5762 43.7334 44.0771 44.0674 44.6396 44.2783C45.2197 44.4893 45.8525 44.5947 46.5381 44.5947C47.3818 44.5947 48.1289 44.4277 48.7793 44.0938C49.4473 43.7422 50.0098 43.1973 50.4668 42.459C50.9414 41.7031 51.293 40.7188 51.5215 39.5059C51.75 38.293 51.8643 36.8164 51.8643 35.0762ZM72.5625 9.47363V50H64.9688V9.47363H72.5625ZM90.5449 21.4707L78.1523 35.6035L71.5078 42.3271L68.7393 36.8428L74.0127 30.1455L81.4219 21.4707H90.5449ZM82.6611 50L74.2236 36.8164L79.4707 32.2285L91.415 50H82.6611Z" fill="#211F54"/>
<path d="M127.371 29.4072V33.9951H101.057V29.4072H127.371ZM116.666 18.2012V46.1504H111.788V18.2012H116.666Z" fill="#0075FF"/>
<path d="M6.31934 82.0713V73.2031H8.94727V82.0713C8.94727 82.9268 8.75977 83.6621 8.38477 84.2773C8.00977 84.8867 7.49707 85.3555 6.84668 85.6836C6.20215 86.0117 5.47559 86.1758 4.66699 86.1758C3.8291 86.1758 3.08789 86.0352 2.44336 85.7539C1.79883 85.4727 1.29199 85.042 0.922852 84.4619C0.553711 83.876 0.369141 83.1348 0.369141 82.2383H3.01465C3.01465 82.707 3.0791 83.0791 3.20801 83.3545C3.34277 83.6299 3.5332 83.8262 3.7793 83.9434C4.02539 84.0605 4.32129 84.1191 4.66699 84.1191C5.00098 84.1191 5.29102 84.04 5.53711 83.8818C5.7832 83.7236 5.97363 83.4922 6.1084 83.1875C6.24902 82.8828 6.31934 82.5107 6.31934 82.0713ZM10.6348 81.3418V81.1572C10.6348 80.46 10.7344 79.8184 10.9336 79.2324C11.1328 78.6406 11.4229 78.1279 11.8037 77.6943C12.1846 77.2607 12.6533 76.9238 13.21 76.6836C13.7666 76.4375 14.4053 76.3145 15.126 76.3145C15.8467 76.3145 16.4883 76.4375 17.0508 76.6836C17.6133 76.9238 18.085 77.2607 18.4658 77.6943C18.8525 78.1279 19.1455 78.6406 19.3447 79.2324C19.5439 79.8184 19.6436 80.46 19.6436 81.1572V81.3418C19.6436 82.0332 19.5439 82.6748 19.3447 83.2666C19.1455 83.8525 18.8525 84.3652 18.4658 84.8047C18.085 85.2383 17.6162 85.5752 17.0596 85.8154C16.5029 86.0557 15.8643 86.1758 15.1436 86.1758C14.4229 86.1758 13.7812 86.0557 13.2188 85.8154C12.6621 85.5752 12.1904 85.2383 11.8037 84.8047C11.4229 84.3652 11.1328 83.8525 10.9336 83.2666C10.7344 82.6748 10.6348 82.0332 10.6348 81.3418ZM13.166 81.1572V81.3418C13.166 81.7402 13.2012 82.1123 13.2715 82.458C13.3418 82.8037 13.4531 83.1084 13.6055 83.3721C13.7637 83.6299 13.9688 83.832 14.2207 83.9785C14.4727 84.125 14.7803 84.1982 15.1436 84.1982C15.4951 84.1982 15.7969 84.125 16.0488 83.9785C16.3008 83.832 16.5029 83.6299 16.6553 83.3721C16.8076 83.1084 16.9189 82.8037 16.9893 82.458C17.0654 82.1123 17.1035 81.7402 17.1035 81.3418V81.1572C17.1035 80.7705 17.0654 80.4072 16.9893 80.0674C16.9189 79.7217 16.8047 79.417 16.6465 79.1533C16.4941 78.8838 16.292 78.6729 16.04 78.5205C15.7881 78.3682 15.4834 78.292 15.126 78.292C14.7686 78.292 14.4639 78.3682 14.2119 78.5205C13.9658 78.6729 13.7637 78.8838 13.6055 79.1533C13.4531 79.417 13.3418 79.7217 13.2715 80.0674C13.2012 80.4072 13.166 80.7705 13.166 81.1572ZM21.1992 72.5H23.7305V83.8203L23.4756 86H21.1992V72.5ZM29.751 81.1484V81.333C29.751 82.042 29.6748 82.6924 29.5225 83.2842C29.376 83.876 29.1475 84.3887 28.8369 84.8223C28.5264 85.25 28.1396 85.584 27.6768 85.8242C27.2197 86.0586 26.6807 86.1758 26.0596 86.1758C25.4795 86.1758 24.9756 86.0586 24.5479 85.8242C24.126 85.5898 23.7715 85.2588 23.4844 84.8311C23.1973 84.4033 22.9658 83.9023 22.79 83.3281C22.6143 82.7539 22.4824 82.127 22.3945 81.4473V81.043C22.4824 80.3633 22.6143 79.7363 22.79 79.1621C22.9658 78.5879 23.1973 78.0869 23.4844 77.6592C23.7715 77.2314 24.126 76.9004 24.5479 76.666C24.9697 76.4316 25.4678 76.3145 26.042 76.3145C26.6689 76.3145 27.2139 76.4346 27.6768 76.6748C28.1455 76.9092 28.5322 77.2432 28.8369 77.6768C29.1475 78.1045 29.376 78.6143 29.5225 79.2061C29.6748 79.792 29.751 80.4395 29.751 81.1484ZM27.2197 81.333V81.1484C27.2197 80.7617 27.1904 80.3984 27.1318 80.0586C27.0791 79.7129 26.9854 79.4111 26.8506 79.1533C26.7158 78.8896 26.5312 78.6816 26.2969 78.5293C26.0684 78.377 25.7725 78.3008 25.4092 78.3008C25.0635 78.3008 24.7705 78.3594 24.5303 78.4766C24.29 78.5938 24.0908 78.7578 23.9326 78.9688C23.7803 79.1797 23.666 79.4316 23.5898 79.7246C23.5137 80.0117 23.4668 80.3281 23.4492 80.6738V81.8252C23.4668 82.2881 23.543 82.6982 23.6777 83.0557C23.8184 83.4072 24.0293 83.6855 24.3105 83.8906C24.5977 84.0898 24.9697 84.1895 25.4268 84.1895C25.7842 84.1895 26.0801 84.1191 26.3145 83.9785C26.5488 83.8379 26.7305 83.6387 26.8594 83.3809C26.9941 83.123 27.0879 82.8213 27.1406 82.4756C27.1934 82.124 27.2197 81.7432 27.2197 81.333ZM36.4658 83.3721C36.4658 83.1904 36.4131 83.0264 36.3076 82.8799C36.2021 82.7334 36.0059 82.5986 35.7188 82.4756C35.4375 82.3467 35.0303 82.2295 34.4971 82.124C34.0166 82.0186 33.5684 81.8867 33.1523 81.7285C32.7422 81.5645 32.3848 81.3682 32.0801 81.1396C31.7812 80.9111 31.5469 80.6416 31.377 80.3311C31.207 80.0146 31.1221 79.6543 31.1221 79.25C31.1221 78.8516 31.207 78.4766 31.377 78.125C31.5527 77.7734 31.8018 77.4629 32.124 77.1934C32.4521 76.918 32.8506 76.7041 33.3193 76.5518C33.7939 76.3936 34.3271 76.3145 34.9189 76.3145C35.7451 76.3145 36.4541 76.4463 37.0459 76.71C37.6436 76.9736 38.1006 77.3369 38.417 77.7998C38.7393 78.2568 38.9004 78.7783 38.9004 79.3643H36.3691C36.3691 79.1182 36.3164 78.8984 36.2109 78.7051C36.1113 78.5059 35.9531 78.3506 35.7363 78.2393C35.5254 78.1221 35.25 78.0635 34.9102 78.0635C34.6289 78.0635 34.3857 78.1133 34.1807 78.2129C33.9756 78.3066 33.8174 78.4355 33.7061 78.5996C33.6006 78.7578 33.5479 78.9336 33.5479 79.127C33.5479 79.2734 33.5771 79.4053 33.6357 79.5225C33.7002 79.6338 33.8027 79.7363 33.9434 79.8301C34.084 79.9238 34.2656 80.0117 34.4883 80.0938C34.7168 80.1699 34.998 80.2402 35.332 80.3047C36.0176 80.4453 36.6299 80.6299 37.1689 80.8584C37.708 81.0811 38.1357 81.3857 38.4521 81.7725C38.7686 82.1533 38.9268 82.6543 38.9268 83.2754C38.9268 83.6973 38.833 84.084 38.6455 84.4355C38.458 84.7871 38.1885 85.0947 37.8369 85.3584C37.4854 85.6162 37.0635 85.8184 36.5713 85.9648C36.085 86.1055 35.5371 86.1758 34.9277 86.1758C34.043 86.1758 33.293 86.0176 32.6777 85.7012C32.0684 85.3848 31.6055 84.9834 31.2891 84.4971C30.9785 84.0049 30.8232 83.501 30.8232 82.9854H33.2227C33.2344 83.3311 33.3223 83.6094 33.4863 83.8203C33.6562 84.0312 33.8701 84.1836 34.1279 84.2773C34.3916 84.3711 34.6758 84.418 34.9805 84.418C35.3086 84.418 35.5811 84.374 35.7979 84.2861C36.0146 84.1924 36.1787 84.0693 36.29 83.917C36.4072 83.7588 36.4658 83.5771 36.4658 83.3721ZM50.6689 83.9258V72.5H53.2178V86H50.9238L50.6689 83.9258ZM44.6572 81.3594V81.1748C44.6572 80.4482 44.7393 79.7891 44.9033 79.1973C45.0674 78.5996 45.3076 78.0869 45.624 77.6592C45.9404 77.2314 46.3301 76.9004 46.793 76.666C47.2559 76.4316 47.7832 76.3145 48.375 76.3145C48.9316 76.3145 49.418 76.4316 49.834 76.666C50.2559 76.9004 50.6133 77.2344 50.9062 77.668C51.2051 78.0957 51.4453 78.6025 51.627 79.1885C51.8086 79.7686 51.9404 80.4043 52.0225 81.0957V81.5C51.9404 82.1621 51.8086 82.7773 51.627 83.3457C51.4453 83.9141 51.2051 84.4121 50.9062 84.8398C50.6133 85.2617 50.2559 85.5898 49.834 85.8242C49.4121 86.0586 48.9199 86.1758 48.3574 86.1758C47.7656 86.1758 47.2383 86.0557 46.7754 85.8154C46.3184 85.5752 45.9316 85.2383 45.6152 84.8047C45.3047 84.3711 45.0674 83.8613 44.9033 83.2754C44.7393 82.6895 44.6572 82.0508 44.6572 81.3594ZM47.1885 81.1748V81.3594C47.1885 81.752 47.2178 82.1182 47.2764 82.458C47.3408 82.7979 47.4434 83.0996 47.584 83.3633C47.7305 83.6211 47.918 83.8232 48.1465 83.9697C48.3809 84.1104 48.665 84.1807 48.999 84.1807C49.4326 84.1807 49.79 84.084 50.0713 83.8906C50.3525 83.6914 50.5664 83.4189 50.7129 83.0732C50.8652 82.7275 50.9531 82.3291 50.9766 81.8779V80.7266C50.959 80.3574 50.9062 80.0264 50.8184 79.7334C50.7363 79.4346 50.6133 79.1797 50.4492 78.9688C50.291 78.7578 50.0918 78.5938 49.8516 78.4766C49.6172 78.3594 49.3389 78.3008 49.0166 78.3008C48.6885 78.3008 48.4072 78.377 48.1729 78.5293C47.9385 78.6758 47.748 78.8779 47.6016 79.1357C47.4609 79.3936 47.3555 79.6982 47.2852 80.0498C47.2207 80.3955 47.1885 80.7705 47.1885 81.1748ZM54.791 81.3418V81.1572C54.791 80.46 54.8906 79.8184 55.0898 79.2324C55.2891 78.6406 55.5791 78.1279 55.96 77.6943C56.3408 77.2607 56.8096 76.9238 57.3662 76.6836C57.9229 76.4375 58.5615 76.3145 59.2822 76.3145C60.0029 76.3145 60.6445 76.4375 61.207 76.6836C61.7695 76.9238 62.2412 77.2607 62.6221 77.6943C63.0088 78.1279 63.3018 78.6406 63.501 79.2324C63.7002 79.8184 63.7998 80.46 63.7998 81.1572V81.3418C63.7998 82.0332 63.7002 82.6748 63.501 83.2666C63.3018 83.8525 63.0088 84.3652 62.6221 84.8047C62.2412 85.2383 61.7725 85.5752 61.2158 85.8154C60.6592 86.0557 60.0205 86.1758 59.2998 86.1758C58.5791 86.1758 57.9375 86.0557 57.375 85.8154C56.8184 85.5752 56.3467 85.2383 55.96 84.8047C55.5791 84.3652 55.2891 83.8525 55.0898 83.2666C54.8906 82.6748 54.791 82.0332 54.791 81.3418ZM57.3223 81.1572V81.3418C57.3223 81.7402 57.3574 82.1123 57.4277 82.458C57.498 82.8037 57.6094 83.1084 57.7617 83.3721C57.9199 83.6299 58.125 83.832 58.377 83.9785C58.6289 84.125 58.9365 84.1982 59.2998 84.1982C59.6514 84.1982 59.9531 84.125 60.2051 83.9785C60.457 83.832 60.6592 83.6299 60.8115 83.3721C60.9639 83.1084 61.0752 82.8037 61.1455 82.458C61.2217 82.1123 61.2598 81.7402 61.2598 81.3418V81.1572C61.2598 80.7705 61.2217 80.4072 61.1455 80.0674C61.0752 79.7217 60.9609 79.417 60.8027 79.1533C60.6504 78.8838 60.4482 78.6729 60.1963 78.5205C59.9443 78.3682 59.6396 78.292 59.2822 78.292C58.9248 78.292 58.6201 78.3682 58.3682 78.5205C58.1221 78.6729 57.9199 78.8838 57.7617 79.1533C57.6094 79.417 57.498 79.7217 57.4277 80.0674C57.3574 80.4072 57.3223 80.7705 57.3223 81.1572ZM67.834 78.5205V86H65.3027V76.4902H67.6758L67.834 78.5205ZM67.4648 80.9111H66.7793C66.7793 80.208 66.8701 79.5752 67.0518 79.0127C67.2334 78.4443 67.4883 77.9609 67.8164 77.5625C68.1445 77.1582 68.5342 76.8506 68.9854 76.6396C69.4424 76.4229 69.9521 76.3145 70.5146 76.3145C70.96 76.3145 71.3672 76.3789 71.7363 76.5078C72.1055 76.6367 72.4219 76.8418 72.6855 77.123C72.9551 77.4043 73.1602 77.7764 73.3008 78.2393C73.4473 78.7021 73.5205 79.2676 73.5205 79.9355V86H70.9717V79.9268C70.9717 79.5049 70.9131 79.1768 70.7959 78.9424C70.6787 78.708 70.5059 78.5439 70.2773 78.4502C70.0547 78.3506 69.7793 78.3008 69.4512 78.3008C69.1113 78.3008 68.8154 78.3682 68.5635 78.5029C68.3174 78.6377 68.1123 78.8252 67.9482 79.0654C67.79 79.2998 67.6699 79.5752 67.5879 79.8916C67.5059 80.208 67.4648 80.5479 67.4648 80.9111ZM79.8223 86.1758C79.084 86.1758 78.4219 86.0586 77.8359 85.8242C77.25 85.584 76.752 85.2529 76.3418 84.8311C75.9375 84.4092 75.627 83.9199 75.4102 83.3633C75.1934 82.8008 75.085 82.2031 75.085 81.5703V81.2188C75.085 80.498 75.1875 79.8389 75.3926 79.2412C75.5977 78.6436 75.8906 78.125 76.2715 77.6855C76.6582 77.2461 77.127 76.9092 77.6777 76.6748C78.2285 76.4346 78.8496 76.3145 79.541 76.3145C80.2148 76.3145 80.8125 76.4258 81.334 76.6484C81.8555 76.8711 82.292 77.1875 82.6436 77.5977C83.001 78.0078 83.2705 78.5 83.4521 79.0742C83.6338 79.6426 83.7246 80.2754 83.7246 80.9727V82.0273H76.166V80.3398H81.2373V80.1465C81.2373 79.7949 81.1729 79.4814 81.0439 79.2061C80.9209 78.9248 80.7334 78.7021 80.4814 78.5381C80.2295 78.374 79.9072 78.292 79.5146 78.292C79.1807 78.292 78.8936 78.3652 78.6533 78.5117C78.4131 78.6582 78.2168 78.8633 78.0645 79.127C77.918 79.3906 77.8066 79.7012 77.7305 80.0586C77.6602 80.4102 77.625 80.7969 77.625 81.2188V81.5703C77.625 81.9512 77.6777 82.3027 77.7832 82.625C77.8945 82.9473 78.0498 83.2256 78.249 83.46C78.4541 83.6943 78.7002 83.876 78.9873 84.0049C79.2803 84.1338 79.6113 84.1982 79.9805 84.1982C80.4375 84.1982 80.8623 84.1104 81.2549 83.9346C81.6533 83.7529 81.9961 83.4805 82.2832 83.1172L83.5137 84.4531C83.3145 84.7402 83.042 85.0156 82.6963 85.2793C82.3564 85.543 81.9463 85.7598 81.4658 85.9297C80.9854 86.0938 80.4375 86.1758 79.8223 86.1758Z" fill="#6E7191"/>
</svg>
