<svg width="114" height="93" viewBox="0 0 114 93" fill="none" xmlns="http://www.w3.org/2000/svg">
<path d="M21.1465 11.5303V50H13.5527V20.2842L4.42969 23.1846V17.1992L20.3291 11.5303H21.1465ZM59.4844 27.4297V34.0742C59.4844 36.957 59.1768 39.4443 58.5615 41.5361C57.9463 43.6104 57.0586 45.3154 55.8984 46.6514C54.7559 47.9697 53.3936 48.9453 51.8115 49.5781C50.2295 50.2109 48.4717 50.5273 46.5381 50.5273C44.9912 50.5273 43.5498 50.334 42.2139 49.9473C40.8779 49.543 39.6738 48.9189 38.6016 48.0752C37.5469 47.2314 36.6328 46.168 35.8594 44.8848C35.1035 43.584 34.5234 42.0371 34.1191 40.2441C33.7148 38.4512 33.5127 36.3945 33.5127 34.0742V27.4297C33.5127 24.5469 33.8203 22.0771 34.4355 20.0205C35.0684 17.9463 35.9561 16.25 37.0986 14.9316C38.2588 13.6133 39.6299 12.6465 41.2119 12.0312C42.7939 11.3984 44.5518 11.082 46.4854 11.082C48.0322 11.082 49.4648 11.2842 50.7832 11.6885C52.1191 12.0752 53.3232 12.6816 54.3955 13.5078C55.4678 14.334 56.3818 15.3975 57.1377 16.6982C57.8936 17.9814 58.4736 19.5195 58.8779 21.3125C59.2822 23.0879 59.4844 25.127 59.4844 27.4297ZM51.8643 35.0762V26.4014C51.8643 25.0127 51.7852 23.7998 51.627 22.7627C51.4863 21.7256 51.2666 20.8467 50.9678 20.126C50.6689 19.3877 50.2998 18.79 49.8604 18.333C49.4209 17.876 48.9199 17.542 48.3574 17.3311C47.7949 17.1201 47.1709 17.0146 46.4854 17.0146C45.624 17.0146 44.8594 17.1816 44.1914 17.5156C43.541 17.8496 42.9873 18.3857 42.5303 19.124C42.0732 19.8447 41.7217 20.8115 41.4756 22.0244C41.2471 23.2197 41.1328 24.6787 41.1328 26.4014V35.0762C41.1328 36.4648 41.2031 37.6865 41.3438 38.7412C41.502 39.7959 41.7305 40.7012 42.0293 41.457C42.3457 42.1953 42.7148 42.8018 43.1367 43.2764C43.5762 43.7334 44.0771 44.0674 44.6396 44.2783C45.2197 44.4893 45.8525 44.5947 46.5381 44.5947C47.3818 44.5947 48.1289 44.4277 48.7793 44.0938C49.4473 43.7422 50.0098 43.1973 50.4668 42.459C50.9414 41.7031 51.293 40.7188 51.5215 39.5059C51.75 38.293 51.8643 36.8164 51.8643 35.0762Z" fill="#211F54"/>
<path d="M95.3711 29.4072V33.9951H69.0566V29.4072H95.3711ZM84.666 18.2012V46.1504H79.7881V18.2012H84.666Z" fill="#0075FF"/>
<path d="M2.90039 73.2031L5.57227 79.0391L8.24414 73.2031H11.1182L6.9082 81.3418V86H4.23633V81.3418L0.0175781 73.2031H2.90039ZM15.9258 86.1758C15.1875 86.1758 14.5254 86.0586 13.9395 85.8242C13.3535 85.584 12.8555 85.2529 12.4453 84.8311C12.041 84.4092 11.7305 83.9199 11.5137 83.3633C11.2969 82.8008 11.1885 82.2031 11.1885 81.5703V81.2188C11.1885 80.498 11.291 79.8389 11.4961 79.2412C11.7012 78.6436 11.9941 78.125 12.375 77.6855C12.7617 77.2461 13.2305 76.9092 13.7812 76.6748C14.332 76.4346 14.9531 76.3145 15.6445 76.3145C16.3184 76.3145 16.916 76.4258 17.4375 76.6484C17.959 76.8711 18.3955 77.1875 18.7471 77.5977C19.1045 78.0078 19.374 78.5 19.5557 79.0742C19.7373 79.6426 19.8281 80.2754 19.8281 80.9727V82.0273H12.2695V80.3398H17.3408V80.1465C17.3408 79.7949 17.2764 79.4814 17.1475 79.2061C17.0244 78.9248 16.8369 78.7021 16.585 78.5381C16.333 78.374 16.0107 78.292 15.6182 78.292C15.2842 78.292 14.9971 78.3652 14.7568 78.5117C14.5166 78.6582 14.3203 78.8633 14.168 79.127C14.0215 79.3906 13.9102 79.7012 13.834 80.0586C13.7637 80.4102 13.7285 80.7969 13.7285 81.2188V81.5703C13.7285 81.9512 13.7812 82.3027 13.8867 82.625C13.998 82.9473 14.1533 83.2256 14.3525 83.46C14.5576 83.6943 14.8037 83.876 15.0908 84.0049C15.3838 84.1338 15.7148 84.1982 16.084 84.1982C16.541 84.1982 16.9658 84.1104 17.3584 83.9346C17.7568 83.7529 18.0996 83.4805 18.3867 83.1172L19.6172 84.4531C19.418 84.7402 19.1455 85.0156 18.7998 85.2793C18.46 85.543 18.0498 85.7598 17.5693 85.9297C17.0889 86.0938 16.541 86.1758 15.9258 86.1758ZM26.4023 83.8555V79.6191C26.4023 79.3145 26.3525 79.0537 26.2529 78.8369C26.1533 78.6143 25.998 78.4414 25.7871 78.3184C25.582 78.1953 25.3154 78.1338 24.9873 78.1338C24.7061 78.1338 24.4629 78.1836 24.2578 78.2832C24.0527 78.377 23.8945 78.5146 23.7832 78.6963C23.6719 78.8721 23.6162 79.0801 23.6162 79.3203H21.085C21.085 78.916 21.1787 78.5322 21.3662 78.1689C21.5537 77.8057 21.8262 77.4863 22.1836 77.2109C22.541 76.9297 22.9658 76.71 23.458 76.5518C23.9561 76.3936 24.5127 76.3145 25.1279 76.3145C25.8662 76.3145 26.5225 76.4375 27.0967 76.6836C27.6709 76.9297 28.1221 77.2988 28.4502 77.791C28.7842 78.2832 28.9512 78.8984 28.9512 79.6367V83.7061C28.9512 84.2275 28.9834 84.6553 29.0479 84.9893C29.1123 85.3174 29.2061 85.6045 29.3291 85.8506V86H26.7715C26.6484 85.7422 26.5547 85.4199 26.4902 85.0332C26.4316 84.6406 26.4023 84.248 26.4023 83.8555ZM26.7363 80.208L26.7539 81.6406H25.3389C25.0049 81.6406 24.7148 81.6787 24.4688 81.7549C24.2227 81.8311 24.0205 81.9395 23.8623 82.0801C23.7041 82.2148 23.5869 82.373 23.5107 82.5547C23.4404 82.7363 23.4053 82.9355 23.4053 83.1523C23.4053 83.3691 23.4551 83.5654 23.5547 83.7412C23.6543 83.9111 23.7979 84.0459 23.9854 84.1455C24.1729 84.2393 24.3926 84.2861 24.6445 84.2861C25.0254 84.2861 25.3564 84.21 25.6377 84.0576C25.9189 83.9053 26.1357 83.7178 26.2881 83.4951C26.4463 83.2725 26.5283 83.0615 26.5342 82.8623L27.2021 83.9346C27.1084 84.1748 26.9795 84.4238 26.8154 84.6816C26.6572 84.9395 26.4551 85.1826 26.209 85.4111C25.9629 85.6338 25.667 85.8184 25.3213 85.9648C24.9756 86.1055 24.5654 86.1758 24.0908 86.1758C23.4873 86.1758 22.9395 86.0557 22.4473 85.8154C21.9609 85.5693 21.5742 85.2324 21.2871 84.8047C21.0059 84.3711 20.8652 83.8789 20.8652 83.3281C20.8652 82.8301 20.959 82.3877 21.1465 82.001C21.334 81.6143 21.6094 81.2891 21.9727 81.0254C22.3418 80.7559 22.8018 80.5537 23.3525 80.4189C23.9033 80.2783 24.542 80.208 25.2686 80.208H26.7363ZM33.4336 78.5645V86H30.9023V76.4902H33.2842L33.4336 78.5645ZM36.2988 76.4287L36.2549 78.7754C36.1318 78.7578 35.9824 78.7432 35.8066 78.7314C35.6367 78.7139 35.4814 78.7051 35.3408 78.7051C34.9834 78.7051 34.6729 78.752 34.4092 78.8457C34.1514 78.9336 33.9346 79.0654 33.7588 79.2412C33.5889 79.417 33.46 79.6309 33.3721 79.8828C33.29 80.1348 33.2432 80.4219 33.2314 80.7441L32.7217 80.5859C32.7217 79.9707 32.7832 79.4053 32.9062 78.8896C33.0293 78.3682 33.208 77.9141 33.4424 77.5273C33.6826 77.1406 33.9756 76.8418 34.3213 76.6309C34.667 76.4199 35.0625 76.3145 35.5078 76.3145C35.6484 76.3145 35.792 76.3262 35.9385 76.3496C36.085 76.3672 36.2051 76.3936 36.2988 76.4287ZM42.6357 83.3721C42.6357 83.1904 42.583 83.0264 42.4775 82.8799C42.3721 82.7334 42.1758 82.5986 41.8887 82.4756C41.6074 82.3467 41.2002 82.2295 40.667 82.124C40.1865 82.0186 39.7383 81.8867 39.3223 81.7285C38.9121 81.5645 38.5547 81.3682 38.25 81.1396C37.9512 80.9111 37.7168 80.6416 37.5469 80.3311C37.377 80.0146 37.292 79.6543 37.292 79.25C37.292 78.8516 37.377 78.4766 37.5469 78.125C37.7227 77.7734 37.9717 77.4629 38.2939 77.1934C38.6221 76.918 39.0205 76.7041 39.4893 76.5518C39.9639 76.3936 40.4971 76.3145 41.0889 76.3145C41.915 76.3145 42.624 76.4463 43.2158 76.71C43.8135 76.9736 44.2705 77.3369 44.5869 77.7998C44.9092 78.2568 45.0703 78.7783 45.0703 79.3643H42.5391C42.5391 79.1182 42.4863 78.8984 42.3809 78.7051C42.2812 78.5059 42.123 78.3506 41.9062 78.2393C41.6953 78.1221 41.4199 78.0635 41.0801 78.0635C40.7988 78.0635 40.5557 78.1133 40.3506 78.2129C40.1455 78.3066 39.9873 78.4355 39.876 78.5996C39.7705 78.7578 39.7178 78.9336 39.7178 79.127C39.7178 79.2734 39.7471 79.4053 39.8057 79.5225C39.8701 79.6338 39.9727 79.7363 40.1133 79.8301C40.2539 79.9238 40.4355 80.0117 40.6582 80.0938C40.8867 80.1699 41.168 80.2402 41.502 80.3047C42.1875 80.4453 42.7998 80.6299 43.3389 80.8584C43.8779 81.0811 44.3057 81.3857 44.6221 81.7725C44.9385 82.1533 45.0967 82.6543 45.0967 83.2754C45.0967 83.6973 45.0029 84.084 44.8154 84.4355C44.6279 84.7871 44.3584 85.0947 44.0068 85.3584C43.6553 85.6162 43.2334 85.8184 42.7412 85.9648C42.2549 86.1055 41.707 86.1758 41.0977 86.1758C40.2129 86.1758 39.4629 86.0176 38.8477 85.7012C38.2383 85.3848 37.7754 84.9834 37.459 84.4971C37.1484 84.0049 36.9932 83.501 36.9932 82.9854H39.3926C39.4043 83.3311 39.4922 83.6094 39.6562 83.8203C39.8262 84.0312 40.04 84.1836 40.2979 84.2773C40.5615 84.3711 40.8457 84.418 41.1504 84.418C41.4785 84.418 41.751 84.374 41.9678 84.2861C42.1846 84.1924 42.3486 84.0693 42.46 83.917C42.5771 83.7588 42.6357 83.5771 42.6357 83.3721Z" fill="#6E7191"/>
</svg>
