<svg width="240" height="240" viewBox="0 0 240 240" fill="none" xmlns="http://www.w3.org/2000/svg">
<g clip-path="url(#clip0_1_209)">
<path d="M120 240C186.274 240 240 186.274 240 120C240 53.7258 186.274 0 120 0C53.7258 0 0 53.7258 0 120C0 186.274 53.7258 240 120 240Z" fill="#CEE5FF"/>
<path d="M195.865 18.53H56.2715C49.6441 18.53 44.2715 23.9026 44.2715 30.53V185.57C44.2715 192.197 49.6441 197.57 56.2715 197.57H195.865C202.493 197.57 207.865 192.197 207.865 185.57V30.53C207.865 23.9026 202.493 18.53 195.865 18.53Z" fill="#133578"/>
<path d="M183.594 5.58447H44C37.3726 5.58447 32 10.9571 32 17.5845V172.624C32 179.252 37.3726 184.624 44 184.624H183.594C190.221 184.624 195.594 179.252 195.594 172.624V17.5845C195.594 10.9571 190.221 5.58447 183.594 5.58447Z" fill="white"/>
<path d="M32 17.5845C32 10.9571 37.3726 5.58447 44 5.58447H183.594C190.222 5.58447 195.594 10.9571 195.594 17.5845V29.8915H32V17.5845Z" fill="#0075FF"/>
<path d="M66.3609 66.6174H55.3706C50.9523 66.6174 47.3706 70.1992 47.3706 74.6174V85.6077C47.3706 90.026 50.9523 93.6077 55.3706 93.6077H66.3609C70.7792 93.6077 74.3609 90.026 74.3609 85.6077V74.6174C74.3609 70.1992 70.7792 66.6174 66.3609 66.6174Z" fill="#EFF0F7"/>
<path d="M66.3609 101.608H55.3706C50.9523 101.608 47.3706 105.19 47.3706 109.608V120.598C47.3706 125.017 50.9523 128.598 55.3706 128.598H66.3609C70.7792 128.598 74.3609 125.017 74.3609 120.598V109.608C74.3609 105.19 70.7792 101.608 66.3609 101.608Z" fill="#EFF0F7"/>
<path d="M66.3609 136.598H55.3706C50.9523 136.598 47.3706 140.18 47.3706 144.598V155.588C47.3706 160.007 50.9523 163.588 55.3706 163.588H66.3609C70.7792 163.588 74.3609 160.007 74.3609 155.588V144.598C74.3609 140.18 70.7792 136.598 66.3609 136.598Z" fill="#EFF0F7"/>
<path d="M100.351 66.6174H89.3608C84.9425 66.6174 81.3608 70.1992 81.3608 74.6174V85.6077C81.3608 90.026 84.9425 93.6077 89.3608 93.6077H100.351C104.769 93.6077 108.351 90.026 108.351 85.6077V74.6174C108.351 70.1992 104.769 66.6174 100.351 66.6174Z" fill="#EFF0F7"/>
<path d="M100.351 101.608H89.3608C84.9425 101.608 81.3608 105.19 81.3608 109.608V120.598C81.3608 125.017 84.9425 128.598 89.3608 128.598H100.351C104.769 128.598 108.351 125.017 108.351 120.598V109.608C108.351 105.19 104.769 101.608 100.351 101.608Z" fill="#4B3CFB"/>
<path d="M100.351 136.598H89.3608C84.9425 136.598 81.3608 140.18 81.3608 144.598V155.588C81.3608 160.007 84.9425 163.588 89.3608 163.588H100.351C104.769 163.588 108.351 160.007 108.351 155.588V144.598C108.351 140.18 104.769 136.598 100.351 136.598Z" fill="#EFF0F7"/>
<path d="M134.341 66.6174H123.351C118.933 66.6174 115.351 70.1992 115.351 74.6174V85.6077C115.351 90.026 118.933 93.6077 123.351 93.6077H134.341C138.76 93.6077 142.341 90.026 142.341 85.6077V74.6174C142.341 70.1992 138.76 66.6174 134.341 66.6174Z" fill="#EFF0F7"/>
<path d="M134.341 101.608H123.351C118.933 101.608 115.351 105.19 115.351 109.608V120.598C115.351 125.017 118.933 128.598 123.351 128.598H134.341C138.76 128.598 142.341 125.017 142.341 120.598V109.608C142.341 105.19 138.76 101.608 134.341 101.608Z" fill="#EFF0F7"/>
<path d="M134.341 136.598H123.351C118.933 136.598 115.351 140.18 115.351 144.598V155.588C115.351 160.007 118.933 163.588 123.351 163.588H134.341C138.76 163.588 142.341 160.007 142.341 155.588V144.598C142.341 140.18 138.76 136.598 134.341 136.598Z" fill="#EFF0F7"/>
<path d="M168.331 66.6174H157.341C152.923 66.6174 149.341 70.1992 149.341 74.6174V85.6077C149.341 90.026 152.923 93.6077 157.341 93.6077H168.331C172.75 93.6077 176.331 90.026 176.331 85.6077V74.6174C176.331 70.1992 172.75 66.6174 168.331 66.6174Z" fill="#EFF0F7"/>
<path d="M168.331 101.608H157.341C152.923 101.608 149.341 105.19 149.341 109.608V120.598C149.341 125.017 152.923 128.598 157.341 128.598H168.331C172.75 128.598 176.331 125.017 176.331 120.598V109.608C176.331 105.19 172.75 101.608 168.331 101.608Z" fill="#EFF0F7"/>
<path d="M168.331 136.598H157.341C152.923 136.598 149.341 140.18 149.341 144.598V155.588C149.341 160.007 152.923 163.588 157.341 163.588H168.331C172.75 163.588 176.331 160.007 176.331 155.588V144.598C176.331 140.18 172.75 136.598 168.331 136.598Z" fill="#EFF0F7"/>
<path opacity="0.6" d="M70.3609 46.5115H51.3706C49.1615 46.5115 47.3706 48.3023 47.3706 50.5115C47.3706 52.7206 49.1615 54.5115 51.3706 54.5115H70.3609C72.57 54.5115 74.3609 52.7206 74.3609 50.5115C74.3609 48.3023 72.57 46.5115 70.3609 46.5115Z" fill="#A0A3BD"/>
<path opacity="0.6" d="M104.351 46.5115H85.3608C83.1517 46.5115 81.3608 48.3023 81.3608 50.5115C81.3608 52.7206 83.1517 54.5115 85.3608 54.5115H104.351C106.56 54.5115 108.351 52.7206 108.351 50.5115C108.351 48.3023 106.56 46.5115 104.351 46.5115Z" fill="#A0A3BD"/>
<path opacity="0.6" d="M138.341 46.5115H119.351C117.142 46.5115 115.351 48.3023 115.351 50.5115C115.351 52.7206 117.142 54.5115 119.351 54.5115H138.341C140.55 54.5115 142.341 52.7206 142.341 50.5115C142.341 48.3023 140.55 46.5115 138.341 46.5115Z" fill="#A0A3BD"/>
<path opacity="0.6" d="M172.331 46.5115H153.341C151.132 46.5115 149.341 48.3023 149.341 50.5115C149.341 52.7206 151.132 54.5115 153.341 54.5115H172.331C174.54 54.5115 176.331 52.7206 176.331 50.5115C176.331 48.3023 174.54 46.5115 172.331 46.5115Z" fill="#A0A3BD"/>
</g>
<defs>
<clipPath id="clip0_1_209">
<rect width="240" height="240" fill="white"/>
</clipPath>
</defs>
</svg>
