<svg width="270" height="240" viewBox="0 0 270 240" fill="none" xmlns="http://www.w3.org/2000/svg">
<g clip-path="url(#clip0_1_233)">
<path d="M134.947 240C201.195 240 254.9 186.274 254.9 120C254.9 53.7258 201.195 0 134.947 0C68.6988 0 14.994 53.7258 14.994 120C14.994 186.274 68.6988 240 134.947 240Z" fill="#CEE5FF"/>
<path d="M175.214 103.346L34.4522 78.5159C26.2939 77.0768 18.5146 82.5239 17.0766 90.6824L2.60372 172.794C1.16571 180.952 6.6136 188.733 14.7719 190.172L155.534 215.001C163.692 216.441 171.471 210.993 172.909 202.835L187.382 120.724C188.82 112.565 183.372 104.785 175.214 103.346Z" fill="#133578"/>
<path d="M184.21 95.3462L43.4478 70.5164C35.2895 69.0773 27.5102 74.5244 26.0722 82.6829L11.5993 164.794C10.1613 172.953 15.6092 180.733 23.7675 182.172L164.529 207.002C172.688 208.441 180.467 202.994 181.905 194.835L196.378 112.724C197.816 104.566 192.368 96.7853 184.21 95.3462Z" fill="white"/>
<path d="M54.2959 96.6044L40.4759 94.1666C38.8442 93.8788 37.2883 94.9683 37.0007 96.6L35.5018 105.104C35.2142 106.736 36.3037 108.292 37.9354 108.58L51.7554 111.018C53.3871 111.306 54.943 110.216 55.2306 108.584L56.7295 100.08C57.0171 98.4483 55.9276 96.8923 54.2959 96.6044Z" fill="#4B3CFB"/>
<path d="M91.5678 164.933L25.5501 153.288C23.9184 153 22.3626 154.09 22.075 155.721L21.0759 161.389C20.7883 163.021 21.8779 164.577 23.5096 164.865L89.5273 176.51C91.1589 176.798 92.7148 175.708 93.0024 174.077L94.0014 168.409C94.289 166.777 93.1994 165.221 91.5678 164.933Z" fill="#DCDDEB"/>
<g style="mix-blend-mode:multiply">
<g style="mix-blend-mode:multiply">
<path d="M136.6 187.463C141.214 188.276 145.613 185.195 146.426 180.579C147.24 175.964 144.159 171.563 139.546 170.749C134.932 169.935 130.533 173.017 129.72 177.632C128.906 182.248 131.987 186.649 136.6 187.463Z" fill="#0075FF"/>
</g>
</g>
<g style="mix-blend-mode:multiply">
<g style="mix-blend-mode:multiply">
<path d="M148.263 189.52C152.876 190.333 157.276 187.252 158.089 182.636C158.903 178.021 155.822 173.62 151.209 172.806C146.595 171.992 142.196 175.074 141.383 179.689C140.569 184.305 143.65 188.706 148.263 189.52Z" fill="#CEE5FF"/>
</g>
</g>
<path d="M52.7999 129.729L30.5568 125.806C28.8381 125.503 27.1993 126.65 26.8964 128.369L26.8964 128.369C26.5934 130.088 27.7411 131.727 29.4598 132.03L51.7028 135.953C53.4215 136.257 55.0603 135.109 55.3633 133.39C55.6662 131.672 54.5185 130.033 52.7999 129.729Z" fill="#EFF0F7"/>
<path d="M90.1267 136.315L67.8836 132.391C66.165 132.088 64.5261 133.235 64.2232 134.954L64.2232 134.954C63.9203 136.673 65.0679 138.312 66.7866 138.615L89.0297 142.539C90.7484 142.842 92.3872 141.694 92.6901 139.975C92.9931 138.257 91.8454 136.618 90.1267 136.315Z" fill="#EFF0F7"/>
<path d="M127.454 142.899L105.211 138.975C103.492 138.672 101.853 139.819 101.55 141.538L101.55 141.538C101.248 143.257 102.395 144.896 104.114 145.199L126.357 149.123C128.076 149.426 129.714 148.278 130.017 146.559C130.32 144.841 129.173 143.202 127.454 142.899Z" fill="#EFF0F7"/>
<path d="M164.78 149.483L142.537 145.559C140.818 145.256 139.179 146.403 138.876 148.122L138.876 148.122C138.574 149.841 139.721 151.48 141.44 151.783L163.683 155.707C165.402 156.01 167.04 154.862 167.343 153.143C167.646 151.425 166.499 149.786 164.78 149.483Z" fill="#EFF0F7"/>
<path d="M227.612 26.5872L86.8503 51.417C78.692 52.8561 73.2441 60.6365 74.6821 68.795L89.1549 150.906C90.593 159.065 98.3723 164.512 106.531 163.073L247.292 138.243C255.451 136.804 260.899 129.024 259.461 120.865L244.988 38.7538C243.55 30.5953 235.77 25.1481 227.612 26.5872Z" fill="#133578"/>
<path d="M234.151 17.2635L93.3894 42.0933C85.2311 43.5324 79.7832 51.3128 81.2212 59.4713L95.694 141.583C97.132 149.741 104.911 155.188 113.07 153.749L253.832 128.919C261.99 127.48 267.438 119.7 266 111.541L251.527 29.43C250.089 21.2715 242.31 15.8244 234.151 17.2635Z" fill="#0075FF"/>
<path d="M252.493 34.9151L82.1877 64.9563L85.7687 85.273L256.074 55.2318L252.493 34.9151Z" fill="#133578"/>
<path d="M141.22 91.2201L100.178 98.4596C98.4595 98.7628 97.3119 100.402 97.6148 102.121L97.6148 102.121C97.9177 103.839 99.5566 104.987 101.275 104.684L142.317 97.4441C144.035 97.1409 145.183 95.5018 144.88 93.7831C144.577 92.0644 142.938 90.9169 141.22 91.2201Z" fill="#133578"/>
<path d="M178.261 84.6863L153.09 89.1264C151.371 89.4295 150.224 91.0686 150.527 92.7873L150.527 92.7873C150.829 94.506 152.468 95.6535 154.187 95.3504L179.358 90.9103C181.077 90.6071 182.224 88.968 181.922 87.2493C181.619 85.5306 179.98 84.3831 178.261 84.6863Z" fill="#133578"/>
</g>
<defs>
<clipPath id="clip0_1_233">
<rect width="270" height="240" fill="white"/>
</clipPath>
</defs>
</svg>
